<svg width="179" height="162" viewBox="0 0 179 162" fill="none" xmlns="http://www.w3.org/2000/svg">
<path d="M157.263 106.932C158.255 106.932 159.087 107.268 159.759 107.94C160.431 108.612 160.767 109.444 160.767 110.436C160.767 111.428 160.431 112.26 159.759 112.932C159.087 113.604 158.255 113.94 157.263 113.94C156.303 113.94 155.487 113.604 154.815 112.932C154.143 112.26 153.807 111.428 153.807 110.436C153.807 109.444 154.143 108.612 154.815 107.94C155.487 107.268 156.303 106.932 157.263 106.932Z" fill="#B7ACAC"/>
<path d="M157.263 35.8964C158.255 35.8964 159.087 36.2324 159.759 36.9044C160.431 37.5764 160.767 38.4084 160.767 39.4004C160.767 40.3924 160.431 41.2244 159.759 41.8964C159.087 42.5684 158.255 42.9044 157.263 42.9044C156.303 42.9044 155.487 42.5684 154.815 41.8964C154.143 41.2244 153.807 40.3924 153.807 39.4004C153.807 38.4084 154.143 37.5764 154.815 36.9044C155.487 36.2324 156.303 35.8964 157.263 35.8964Z" fill="#B7ACAC"/>
<path d="M137.355 108.664C138.347 108.664 139.179 109 139.851 109.672C140.523 110.344 140.859 111.176 140.859 112.168C140.859 113.16 140.523 113.992 139.851 114.664C139.179 115.336 138.347 115.672 137.355 115.672C136.395 115.672 135.579 115.336 134.907 114.664C134.235 113.992 133.899 113.16 133.899 112.168C133.899 111.176 134.235 110.344 134.907 109.672C135.579 109 136.395 108.664 137.355 108.664Z" fill="#B7ACAC"/>
<path d="M100.383 108.664C101.375 108.664 102.207 109 102.879 109.672C103.551 110.344 103.887 111.176 103.887 112.168C103.887 113.16 103.551 113.992 102.879 114.664C102.207 115.336 101.375 115.672 100.383 115.672C99.4233 115.672 98.6073 115.336 97.9353 114.664C97.2633 113.992 96.9273 113.16 96.9273 112.168C96.9273 111.176 97.2633 110.344 97.9353 109.672C98.6073 109 99.4233 108.664 100.383 108.664Z" fill="#B7ACAC"/>
<path d="M99.4351 73.2289C100.427 73.2289 101.259 73.5649 101.931 74.2369C102.603 74.9089 102.939 75.7409 102.939 76.7329C102.939 77.7249 102.603 78.5569 101.931 79.2289C101.259 79.9009 100.427 80.2369 99.4351 80.2369C98.4751 80.2369 97.6591 79.9009 96.9871 79.2289C96.3151 78.5569 95.9791 77.7249 95.9791 76.7329C95.9791 75.7409 96.3151 74.9089 96.9871 74.2369C97.6591 73.5649 98.4751 73.2289 99.4351 73.2289Z" fill="#B7ACAC"/>
<path d="M118.395 73.2289C119.387 73.2289 120.219 73.5649 120.891 74.2369C121.563 74.9089 121.899 75.7409 121.899 76.7329C121.899 77.7249 121.563 78.5569 120.891 79.2289C120.219 79.9009 119.387 80.2369 118.395 80.2369C117.435 80.2369 116.619 79.9009 115.947 79.2289C115.275 78.5569 114.939 77.7249 114.939 76.7329C114.939 75.7409 115.275 74.9089 115.947 74.2369C116.619 73.5649 117.435 73.2289 118.395 73.2289Z" fill="#B7ACAC"/>
<path d="M137.355 73.2289C138.347 73.2289 139.179 73.5649 139.851 74.2369C140.523 74.9089 140.859 75.7409 140.859 76.7329C140.859 77.7249 140.523 78.5569 139.851 79.2289C139.179 79.9009 138.347 80.2369 137.355 80.2369C136.395 80.2369 135.579 79.9009 134.907 79.2289C134.235 78.5569 133.899 77.7249 133.899 76.7329C133.899 75.7409 134.235 74.9089 134.907 74.2369C135.579 73.5649 136.395 73.2289 137.355 73.2289Z" fill="#B7ACAC"/>
<path d="M157.263 73.2289C158.255 73.2289 159.087 73.5649 159.759 74.2369C160.431 74.9089 160.767 75.7409 160.767 76.7329C160.767 77.7249 160.431 78.5569 159.759 79.2289C159.087 79.9009 158.255 80.2369 157.263 80.2369C156.303 80.2369 155.487 79.9009 154.815 79.2289C154.143 78.5569 153.807 77.7249 153.807 76.7329C153.807 75.7409 154.143 74.9089 154.815 74.2369C155.487 73.5649 156.303 73.2289 157.263 73.2289Z" fill="#B7ACAC"/>
<path d="M157.263 1.24505C158.255 1.24505 159.087 1.58105 159.759 2.25305C160.431 2.92505 160.767 3.75705 160.767 4.74905C160.767 5.74105 160.431 6.57305 159.759 7.24506C159.087 7.91706 158.255 8.25306 157.263 8.25306C156.303 8.25306 155.487 7.91706 154.815 7.24506C154.143 6.57305 153.807 5.74105 153.807 4.74905C153.807 3.75705 154.143 2.92505 154.815 2.25305C155.487 1.58105 156.303 1.24505 157.263 1.24505Z" fill="#B7ACAC"/>
<path d="M100.383 35.1127C101.375 35.1127 102.207 35.4487 102.879 36.1207C103.551 36.7927 103.887 37.6247 103.887 38.6167C103.887 39.6087 103.551 40.4407 102.879 41.1127C102.207 41.7847 101.375 42.1207 100.383 42.1207C99.4233 42.1207 98.6073 41.7847 97.9353 41.1127C97.2633 40.4407 96.9273 39.6087 96.9273 38.6167C96.9273 37.6247 97.2633 36.7927 97.9353 36.1207C98.6073 35.4487 99.4233 35.1127 100.383 35.1127Z" fill="#B7ACAC"/>
<path d="M99.4351 0.461455C100.427 0.461455 101.259 0.797455 101.931 1.46945C102.603 2.14145 102.939 2.97345 102.939 3.96545C102.939 4.95745 102.603 5.78946 101.931 6.46146C101.259 7.13346 100.427 7.46946 99.4351 7.46946C98.4751 7.46946 97.6591 7.13346 96.9871 6.46146C96.3151 5.78946 95.9791 4.95745 95.9791 3.96545C95.9791 2.97345 96.3151 2.14145 96.9871 1.46945C97.6591 0.797455 98.4751 0.461455 99.4351 0.461455Z" fill="#B7ACAC"/>
<path d="M136.407 36.8452C137.399 36.8452 138.231 37.1812 138.903 37.8532C139.575 38.5252 139.911 39.3572 139.911 40.3492C139.911 41.3412 139.575 42.1732 138.903 42.8452C138.231 43.5172 137.399 43.8532 136.407 43.8532C135.447 43.8532 134.631 43.5172 133.959 42.8452C133.287 42.1732 132.951 41.3412 132.951 40.3492C132.951 39.3572 133.287 38.5252 133.959 37.8532C134.631 37.1812 135.447 36.8452 136.407 36.8452Z" fill="#B7ACAC"/>
<path d="M137.355 2.19379C138.347 2.19379 139.179 2.52979 139.851 3.20179C140.523 3.87379 140.859 4.70579 140.859 5.69779C140.859 6.68979 140.523 7.52179 139.851 8.19379C139.179 8.86579 138.347 9.20179 137.355 9.20179C136.395 9.20179 135.579 8.86579 134.907 8.19379C134.235 7.52179 133.899 6.68979 133.899 5.69779C133.899 4.70579 134.235 3.87379 134.907 3.20179C135.579 2.52979 136.395 2.19379 137.355 2.19379Z" fill="#B7ACAC"/>
<path d="M118.395 36.8452C119.387 36.8452 120.219 37.1812 120.891 37.8532C121.563 38.5252 121.899 39.3572 121.899 40.3492C121.899 41.3412 121.563 42.1732 120.891 42.8452C120.219 43.5172 119.387 43.8532 118.395 43.8532C117.435 43.8532 116.619 43.5172 115.947 42.8452C115.275 42.1732 114.939 41.3412 114.939 40.3492C114.939 39.3572 115.275 38.5252 115.947 37.8532C116.619 37.1812 117.435 36.8452 118.395 36.8452Z" fill="#B7ACAC"/>
<path d="M118.395 0.461455C119.387 0.461455 120.219 0.797455 120.891 1.46945C121.563 2.14145 121.899 2.97345 121.899 3.96545C121.899 4.95745 121.563 5.78946 120.891 6.46146C120.219 7.13346 119.387 7.46946 118.395 7.46946C117.435 7.46946 116.619 7.13346 115.947 6.46146C115.275 5.78946 114.939 4.95745 114.939 3.96545C114.939 2.97345 115.275 2.14145 115.947 1.46945C116.619 0.797455 117.435 0.461455 118.395 0.461455Z" fill="#B7ACAC"/>
<path d="M79.5269 2.19379C80.5189 2.19379 81.3509 2.52979 82.0229 3.20179C82.6949 3.87379 83.0309 4.70579 83.0309 5.69779C83.0309 6.68979 82.6949 7.52179 82.0229 8.19379C81.3509 8.86579 80.5189 9.20179 79.5269 9.20179C78.5669 9.20179 77.7509 8.86579 77.0789 8.19379C76.4069 7.52179 76.0709 6.68979 76.0709 5.69779C76.0709 4.70579 76.4069 3.87379 77.0789 3.20179C77.7509 2.52979 78.5669 2.19379 79.5269 2.19379Z" fill="#B7ACAC"/>
<path d="M118.395 108.664C119.387 108.664 120.219 109 120.891 109.672C121.563 110.344 121.899 111.176 121.899 112.168C121.899 113.16 121.563 113.992 120.891 114.664C120.219 115.336 119.387 115.672 118.395 115.672C117.435 115.672 116.619 115.336 115.947 114.664C115.275 113.992 114.939 113.16 114.939 112.168C114.939 111.176 115.275 110.344 115.947 109.672C116.619 109 117.435 108.664 118.395 108.664Z" fill="#B7ACAC"/>
<path d="M59.6192 0.461455C60.6112 0.461455 61.4432 0.797455 62.1152 1.46945C62.7872 2.14145 63.1232 2.97345 63.1232 3.96545C63.1232 4.95745 62.7872 5.78946 62.1152 6.46146C61.4432 7.13346 60.6112 7.46946 59.6192 7.46946C58.6592 7.46946 57.8432 7.13346 57.1712 6.46146C56.4992 5.78946 56.1632 4.95745 56.1632 3.96545C56.1632 2.97345 56.4992 2.14145 57.1712 1.46945C57.8432 0.797455 58.6592 0.461455 59.6192 0.461455Z" fill="#B7ACAC"/>
<path d="M40.6587 0.461455C41.6507 0.461455 42.4827 0.797455 43.1547 1.46945C43.8267 2.14145 44.1627 2.97345 44.1627 3.96545C44.1627 4.95745 43.8267 5.78946 43.1547 6.46146C42.4827 7.13346 41.6507 7.46946 40.6587 7.46946C39.6987 7.46946 38.8827 7.13346 38.2107 6.46146C37.5387 5.78946 37.2027 4.95745 37.2027 3.96545C37.2027 2.97345 37.5387 2.14145 38.2107 1.46945C38.8827 0.797455 39.6987 0.461455 40.6587 0.461455Z" fill="#B7ACAC"/>
<path d="M21.6987 0.461455C22.6907 0.461455 23.5227 0.797455 24.1947 1.46945C24.8667 2.14145 25.2027 2.97345 25.2027 3.96545C25.2027 4.95745 24.8667 5.78946 24.1947 6.46146C23.5227 7.13346 22.6907 7.46946 21.6987 7.46946C20.7387 7.46946 19.9227 7.13346 19.2507 6.46146C18.5787 5.78946 18.2427 4.95745 18.2427 3.96545C18.2427 2.97345 18.5787 2.14145 19.2507 1.46945C19.9227 0.797455 20.7387 0.461455 21.6987 0.461455Z" fill="#B7ACAC"/>
<path d="M79.3545 35.9378C80.3465 35.9378 81.1785 36.2738 81.8505 36.9458C82.5225 37.6178 82.8585 38.4498 82.8585 39.4418C82.8585 40.4338 82.5225 41.2658 81.8505 41.9378C81.1785 42.6098 80.3465 42.9458 79.3545 42.9458C78.3945 42.9458 77.5785 42.6098 76.9065 41.9378C76.2345 41.2658 75.8985 40.4338 75.8985 39.4418C75.8985 38.4498 76.2345 37.6178 76.9065 36.9458C77.5785 36.2738 78.3945 35.9378 79.3545 35.9378Z" fill="#B7ACAC"/>
<path d="M59.6192 35.9378C60.6112 35.9378 61.4432 36.2738 62.1152 36.9458C62.7872 37.6178 63.1232 38.4498 63.1232 39.4418C63.1232 40.4338 62.7872 41.2658 62.1152 41.9378C61.4432 42.6098 60.6112 42.9458 59.6192 42.9458C58.6592 42.9458 57.8432 42.6098 57.1712 41.9378C56.4992 41.2658 56.1632 40.4338 56.1632 39.4418C56.1632 38.4498 56.4992 37.6178 57.1712 36.9458C57.8432 36.2738 58.6592 35.9378 59.6192 35.9378Z" fill="#B7ACAC"/>
<path d="M59.6192 35.9378C60.6112 35.9378 61.4432 36.2738 62.1152 36.9458C62.7872 37.6178 63.1232 38.4498 63.1232 39.4418C63.1232 40.4338 62.7872 41.2658 62.1152 41.9378C61.4432 42.6098 60.6112 42.9458 59.6192 42.9458C58.6592 42.9458 57.8432 42.6098 57.1712 41.9378C56.4992 41.2658 56.1632 40.4338 56.1632 39.4418C56.1632 38.4498 56.4992 37.6178 57.1712 36.9458C57.8432 36.2738 58.6592 35.9378 59.6192 35.9378Z" fill="#B7ACAC"/>
<path d="M40.6587 35.9378C41.6507 35.9378 42.4827 36.2738 43.1547 36.9458C43.8267 37.6178 44.1627 38.4498 44.1627 39.4418C44.1627 40.4338 43.8267 41.2658 43.1547 41.9378C42.4827 42.6098 41.6507 42.9458 40.6587 42.9458C39.6987 42.9458 38.8827 42.6098 38.2107 41.9378C37.5387 41.2658 37.2027 40.4338 37.2027 39.4418C37.2027 38.4498 37.5387 37.6178 38.2107 36.9458C38.8827 36.2738 39.6987 35.9378 40.6587 35.9378Z" fill="#B7ACAC"/>
<path d="M21.6987 35.9378C22.6907 35.9378 23.5227 36.2738 24.1947 36.9458C24.8667 37.6178 25.2027 38.4498 25.2027 39.4418C25.2027 40.4338 24.8667 41.2658 24.1947 41.9378C23.5227 42.6098 22.6907 42.9458 21.6987 42.9458C20.7387 42.9458 19.9227 42.6098 19.2507 41.9378C18.5787 41.2658 18.2427 40.4338 18.2427 39.4418C18.2427 38.4498 18.5787 37.6178 19.2507 36.9458C19.9227 36.2738 20.7387 35.9378 21.6987 35.9378Z" fill="#B7ACAC"/>
<path d="M79.3545 73.1878C80.3465 73.1878 81.1785 73.5238 81.8505 74.1958C82.5225 74.8678 82.8585 75.6998 82.8585 76.6918C82.8585 77.6838 82.5225 78.5158 81.8505 79.1878C81.1785 79.8598 80.3465 80.1958 79.3545 80.1958C78.3945 80.1958 77.5785 79.8598 76.9065 79.1878C76.2345 78.5158 75.8985 77.6838 75.8985 76.6918C75.8985 75.6998 76.2345 74.8678 76.9065 74.1958C77.5785 73.5238 78.3945 73.1878 79.3545 73.1878Z" fill="#B7ACAC"/>
<path d="M59.6192 73.1878C60.6112 73.1878 61.4432 73.5238 62.1152 74.1958C62.7872 74.8678 63.1232 75.6998 63.1232 76.6918C63.1232 77.6838 62.7872 78.5158 62.1152 79.1878C61.4432 79.8598 60.6112 80.1958 59.6192 80.1958C58.6592 80.1958 57.8432 79.8598 57.1712 79.1878C56.4992 78.5158 56.1632 77.6838 56.1632 76.6918C56.1632 75.6998 56.4992 74.8678 57.1712 74.1958C57.8432 73.5238 58.6592 73.1878 59.6192 73.1878Z" fill="#B7ACAC"/>
<path d="M59.6192 73.1878C60.6112 73.1878 61.4432 73.5238 62.1152 74.1958C62.7872 74.8678 63.1232 75.6998 63.1232 76.6918C63.1232 77.6838 62.7872 78.5158 62.1152 79.1878C61.4432 79.8598 60.6112 80.1958 59.6192 80.1958C58.6592 80.1958 57.8432 79.8598 57.1712 79.1878C56.4992 78.5158 56.1632 77.6838 56.1632 76.6918C56.1632 75.6998 56.4992 74.8678 57.1712 74.1958C57.8432 73.5238 58.6592 73.1878 59.6192 73.1878Z" fill="#B7ACAC"/>
<path d="M40.6587 73.1878C41.6507 73.1878 42.4827 73.5238 43.1547 74.1958C43.8267 74.8678 44.1627 75.6998 44.1627 76.6918C44.1627 77.6838 43.8267 78.5158 43.1547 79.1878C42.4827 79.8598 41.6507 80.1958 40.6587 80.1958C39.6987 80.1958 38.8827 79.8598 38.2107 79.1878C37.5387 78.5158 37.2027 77.6838 37.2027 76.6918C37.2027 75.6998 37.5387 74.8678 38.2107 74.1958C38.8827 73.5238 39.6987 73.1878 40.6587 73.1878Z" fill="#B7ACAC"/>
<path d="M21.6987 73.1878C22.6907 73.1878 23.5227 73.5238 24.1947 74.1958C24.8667 74.8678 25.2027 75.6998 25.2027 76.6918C25.2027 77.6838 24.8667 78.5158 24.1947 79.1878C23.5227 79.8598 22.6907 80.1958 21.6987 80.1958C20.7387 80.1958 19.9227 79.8598 19.2507 79.1878C18.5787 78.5158 18.2427 77.6838 18.2427 76.6918C18.2427 75.6998 18.5787 74.8678 19.2507 74.1958C19.9227 73.5238 20.7387 73.1878 21.6987 73.1878Z" fill="#B7ACAC"/>
<path d="M79.5269 107.88C80.5189 107.88 81.3509 108.216 82.0229 108.888C82.6949 109.56 83.0309 110.392 83.0309 111.384C83.0309 112.376 82.6949 113.208 82.0229 113.88C81.3509 114.552 80.5189 114.888 79.5269 114.888C78.5669 114.888 77.7509 114.552 77.0789 113.88C76.4069 113.208 76.0709 112.376 76.0709 111.384C76.0709 110.392 76.4069 109.56 77.0789 108.888C77.7509 108.216 78.5669 107.88 79.5269 107.88Z" fill="#B7ACAC"/>
<path d="M59.6192 108.664C60.6112 108.664 61.4432 109 62.1152 109.672C62.7872 110.344 63.1232 111.176 63.1232 112.168C63.1232 113.16 62.7872 113.992 62.1152 114.664C61.4432 115.336 60.6112 115.672 59.6192 115.672C58.6592 115.672 57.8432 115.336 57.1712 114.664C56.4992 113.992 56.1632 113.16 56.1632 112.168C56.1632 111.176 56.4992 110.344 57.1712 109.672C57.8432 109 58.6592 108.664 59.6192 108.664Z" fill="#B7ACAC"/>
<path d="M59.6192 108.664C60.6112 108.664 61.4432 109 62.1152 109.672C62.7872 110.344 63.1232 111.176 63.1232 112.168C63.1232 113.16 62.7872 113.992 62.1152 114.664C61.4432 115.336 60.6112 115.672 59.6192 115.672C58.6592 115.672 57.8432 115.336 57.1712 114.664C56.4992 113.992 56.1632 113.16 56.1632 112.168C56.1632 111.176 56.4992 110.344 57.1712 109.672C57.8432 109 58.6592 108.664 59.6192 108.664Z" fill="#B7ACAC"/>
<path d="M40.6592 108.664C41.6512 108.664 42.4832 109 43.1552 109.672C43.8272 110.344 44.1632 111.176 44.1632 112.168C44.1632 113.16 43.8272 113.992 43.1552 114.664C42.4832 115.336 41.6512 115.672 40.6592 115.672C39.6992 115.672 38.8832 115.336 38.2112 114.664C37.5392 113.992 37.2032 113.16 37.2032 112.168C37.2032 111.176 37.5392 110.344 38.2112 109.672C38.8832 109 39.6992 108.664 40.6592 108.664Z" fill="#B7ACAC"/>
<path d="M21.6987 108.664C22.6907 108.664 23.5227 109 24.1947 109.672C24.8667 110.344 25.2027 111.176 25.2027 112.168C25.2027 113.16 24.8667 113.992 24.1947 114.664C23.5227 115.336 22.6907 115.672 21.6987 115.672C20.7387 115.672 19.9227 115.336 19.2507 114.664C18.5787 113.992 18.2427 113.16 18.2427 112.168C18.2427 111.176 18.5787 110.344 19.2507 109.672C19.9227 109 20.7387 108.664 21.6987 108.664Z" fill="#B7ACAC"/>
</svg>
